<?xml version="1.0"?>
<svg version="1.1" xmlns="http://www.w3.org/2000/svg" width="298" height="80" style=""><path fill="#ff0000" d="M16.447265625,35.4677734375q-0.05078125-0.6728515625,0.1142578125-1.26953125t0.6220703125-0.990234375t1.548828125-0.3935546875q0.25390625,0,0.6220703125,0.05078125t0.736328125,0.1650390625t0.5966796875,0.3173828125t0.228515625,0.55859375q0,0.939453125,0.0634765625,2.4755859375t0.1650390625,3.19921875t0.1904296875,3.25t0.1650390625,2.5771484375q1.98046875-0.1015625,3.986328125-0.1015625t3.9609375-0.1015625l3.50390625-0.1015625l0-2.513671875q0-4.21484375-0.1650390625-8.4423828125t-0.5712890625-8.4423828125q0-0.3046875,0.25390625-0.4951171875t0.5966796875-0.2919921875t0.7109375-0.126953125t0.5712890625-0.025390625q0.583984375,0,1.2568359375,0.177734375t0.7744140625,0.76171875l0.15234375,1.091796875q0.634765625,4.5703125,0.86328125,9.0390625t0.330078125,8.9375q0.3046875,0.05078125,0.6474609375,0.1650390625t0.6982421875,0.2158203125q0.25390625,0.1015625,0.7236328125,0.3046875t0.4697265625,0.634765625q0,0.40625-0.35546875,0.634765625t-0.7998046875,0.3427734375t-0.86328125,0.1396484375t-0.5205078125,0.025390625q0.05078125,1.87890625,0.05078125,3.7451171875l0,3.7451171875l0,8.201171875l0,4.5703125q0,0.3046875-0.2919921875,0.5458984375t-0.6982421875,0.3935546875t-0.8505859375,0.203125t-0.7998046875,0.05078125t-0.837890625-0.05078125t-0.86328125-0.203125t-0.6728515625-0.380859375t-0.2919921875-0.55859375l0-1.091796875q0.1015625-4.82421875,0.228515625-9.5595703125t0.25390625-9.5087890625q-2.767578125,0.1015625-5.6240234375,0.126953125t-5.6748046875,0.126953125q0.3046875,3.580078125,0.6982421875,7.1474609375t0.8251953125,7.1474609375q0,0.3046875-0.2919921875,0.5458984375t-0.685546875,0.3935546875t-0.837890625,0.203125t-0.7998046875,0.05078125q-0.736328125,0-1.6123046875-0.25390625t-0.9775390625-0.939453125q-0.3046875-2.69140625-0.5712890625-5.94140625t-0.4697265625-6.6396484375t-0.3173828125-6.6396484375t-0.1142578125-5.890625q0-0.634765625-0.05078125-1.3076171875z M44.41935546875,54.294921875q0-0.5078125,0.1142578125-1.345703125t0.2666015625-1.6630859375t0.35546875-1.5361328125t0.482421875-0.9140625q0.203125-0.203125,0.6982421875-0.40625t1.041015625-0.2919921875t1.015625,0.076171875t0.5712890625,0.6728515625q-0.35546875,0.45703125-0.6474609375,1.5615234375t-0.4443359375,2.4501953125q-0.126953125,1.142578125-0.126953125,2.361328125l0,0.431640625q0.025390625,1.421875,0.25390625,2.615234375t0.6982421875,1.9677734375t1.3076171875,0.7744140625q1.77734375,0,3.25-1.6376953125t2.615234375-3.9990234375t2.005859375-5.0146484375t1.47265625-4.6337890625q0.15234375-0.583984375,0.7236328125-0.787109375t1.2314453125-0.1396484375t1.1806640625,0.3173828125t0.6220703125,0.609375q-0.5078125,4.265625-0.7998046875,8.53125t-0.2919921875,8.58203125q0,0.837890625,0.076171875,1.5361328125t-0.076171875,1.193359375t-0.6728515625,0.787109375t-1.6630859375,0.2919921875q-0.25390625,0-0.6474609375-0.05078125t-0.8125-0.1650390625t-0.7109375-0.3427734375t-0.2919921875-0.533203125q0-1.87890625,0.1396484375-3.859375t0.3935546875-3.833984375q-0.685546875,0.990234375-1.5107421875,1.9677734375t-1.8154296875,1.7646484375t-2.1328125,1.2568359375t-2.462890625,0.4697265625q-1.87890625,0-2.9580078125-0.888671875t-1.625-2.2216796875t-0.685546875-2.9072265625t-0.1396484375-3.046875z M68.3289453125,56.65625l0-0.736328125q0-0.9140625,0.05078125-1.7265625q0.05078125-1.142578125,0.05078125-1.87890625q0-0.40625,0.05078125-0.9267578125t0.25390625-0.8251953125q0.25390625-0.25390625,0.5966796875-0.5205078125t0.7490234375-0.2666015625q1.294921875,0,2.03125,0.2919921875t0.787109375,1.2060546875l0.1015625,0.787109375q0.45703125-1.091796875,1.21875-2.7041015625t1.7646484375-3.072265625t2.259765625-2.48828125t2.6533203125-1.0283203125q1.294921875,0,2.1328125,1.21875t1.3330078125,3.1103515625t0.6982421875,4.21484375t0.279296875,4.5576171875t0.1015625,4.0751953125t0.177734375,2.7802734375q0.1015625,0.787109375,0.3427734375,1.6630859375t0.2412109375,1.6123046875q0,0.203125-0.2919921875,0.3935546875t-0.6220703125,0.3173828125t-0.6728515625,0.203125t-0.4951171875,0.076171875q-0.990234375,0-1.4091796875-1.4853515625t-0.5205078125-3.7197265625t-0.1015625-4.8369140625t-0.177734375-4.8369140625t-0.7236328125-3.7197265625t-1.7392578125-1.5361328125q-1.091796875,0-2.259765625,1.4091796875t-2.005859375,3.7451171875q-0.8125,2.3359375-1.1171875,5.306640625q-0.1015625,0.939453125-0.1015625,1.87890625q0,2.056640625,0.431640625,4.11328125q0.05078125,0.35546875-0.2919921875,0.533203125t-0.8505859375,0.279296875t-1.0283203125,0.126953125t-0.7998046875,0.025390625q-0.990234375,0-1.5869140625-0.6982421875t-0.9267578125-1.7900390625t-0.4443359375-2.4501953125t-0.1396484375-2.6787109375z M91.40064453125,56.224609375q0-1.98046875,0.4189453125-3.5927734375t1.3330078125-2.7294921875t2.3994140625-1.7392578125t3.6181640625-0.6220703125q1.193359375,0,2.4375,0.3173828125t2.1328125,1.1806640625q0-0.5078125,0.1015625-2.0947265625t0.25390625-3.6943359375t0.3173828125-4.41796875t0.2919921875-4.291015625t0.228515625-3.326171875t0.15234375-1.5234375q0.25390625-0.736328125,0.939453125-0.8759765625t1.294921875-0.1396484375q1.599609375,0,1.9677734375,0.5078125t0.3681640625,2.03125q0,5.560546875-0.4951171875,11.0703125t-0.4951171875,11.0703125q0,3.580078125,0.1396484375,7.1982421875t1.0029296875,7.1220703125l0.279296875,0.25390625l0.15234375,0.45703125l-0.380859375,0.583984375q-0.96484375,0.609375-2.234375,0.609375l-0.1015625,0q-1.294921875,0-2.38671875-0.609375q-0.40625-0.25390625-0.6728515625-1.5107421875t-0.4189453125-2.767578125t-0.228515625-2.9072265625t-0.126953125-1.98046875q-0.888671875,2.03125-2.4248046875,3.4912109375t-3.8720703125,1.4599609375q-1.828125,0-2.99609375-0.787109375t-1.8154296875-2.005859375t-0.9140625-2.7294921875t-0.2666015625-3.0087890625z M94.47291015625,56.376953125q0,0.583984375,0.1396484375,1.7265625t0.4443359375,2.28515625t0.8505859375,2.03125t1.4345703125,0.888671875q1.193359375-0.583984375,2.158203125-1.9423828125t1.6630859375-2.99609375t1.091796875-3.275390625t0.3935546875-2.8310546875q0-1.498046875-1.091796875-2.48828125t-2.615234375-0.990234375q-0.45703125,0-0.9267578125,0.177734375t-0.8759765625,0.40625q-0.939453125,0.888671875-1.4599609375,1.6123046875t-0.787109375,1.498046875t-0.3427734375,1.7138671875t-0.076171875,2.18359375z M115.4371875,57.5703125q0-1.77734375,0.3935546875-4.189453125t1.3330078125-4.5703125t2.4755859375-3.6689453125t3.8720703125-1.5107421875q2.18359375,0,3.275390625,1.2568359375t1.091796875,3.3896484375q0,1.396484375-0.5205078125,3.0595703125t-1.4853515625,3.1484375t-2.28515625,2.4755859375t-2.9453125,0.990234375l-0.66015625-0.05078125q0,0.685546875,0.203125,1.8408203125t0.5966796875,2.2978515625t1.015625,2.005859375t1.5107421875,0.86328125q1.294921875,0,2.48828125-1.041015625t2.259765625-2.310546875t1.98046875-2.310546875t1.67578125-1.041015625q0.40625,0,0.837890625,0.126953125t0.482421875,0.7109375q0,0.35546875-0.1904296875,0.583984375t-0.3427734375,0.5078125q-0.787109375,1.345703125-1.7138671875,2.564453125t-2.0947265625,2.208984375t-2.5517578125,1.5615234375t-3.0595703125,0.5712890625q-2.18359375,0-3.630859375-0.7744140625t-2.3359375-2.08203125t-1.2822265625-3.021484375t-0.3935546875-3.5927734375z M119.982109375,55.640625l0.7109375,0.634765625q0.5078125,0.45703125,1.015625,0.203125t0.9140625-0.9267578125t0.7490234375-1.6630859375t0.609375-2.03125t0.3935546875-2.03125t0.126953125-1.650390625l0-0.86328125t-0.076171875-0.9140625t-0.2666015625-0.7236328125t-0.5966796875-0.3681640625q-0.126953125-0.025390625-0.228515625-0.025390625q-0.86328125,0-1.47265625,1.091796875q-0.66015625,1.21875-1.06640625,2.9580078125t-0.583984375,3.5673828125t-0.228515625,2.7421875z M136.65537109375,49.419921875q0-1.041015625,0.3681640625-1.751953125t1.5615234375-0.7109375q0.45703125,0,1.142578125,0.1396484375t0.787109375,0.6982421875q0.25390625,1.498046875,0.279296875,3.25t0.177734375,3.30078125q0.583984375-1.142578125,1.498046875-2.462890625t2.08203125-2.4375t2.5390625-1.853515625t2.79296875-0.736328125q0.1015625,0,0.380859375,0.076171875t0.5205078125,0.2158203125t0.2919921875,0.3173828125t-0.279296875,0.330078125q-0.1015625,0.3046875-0.431640625,0.3681640625t-0.583984375,0.0634765625q-0.15234375,0-0.482421875-0.126953125q-1.87890625,0.990234375-3.19921875,2.69140625t-2.158203125,3.7705078125t-1.21875,4.3671875t-0.380859375,4.4814453125q0,1.091796875-0.4951171875,1.3203125t-1.5869140625,0.228515625q-0.583984375,0-1.2314453125-0.126953125t-0.9013671875-0.8125q-0.45703125-1.447265625-0.7490234375-3.326171875t-0.4443359375-3.8720703125t-0.2158203125-3.9228515625t-0.0634765625-3.478515625z M154.6997265625,56.529296875q0-1.7265625,0.4697265625-3.326171875t1.4091796875-2.8564453125t2.3486328125-2.005859375t3.2626953125-0.7490234375q1.142578125,0,2.5263671875,0.3427734375t2.6025390625,1.015625t2.03125,1.7138671875t0.8125,2.38671875q0,0.634765625-0.2158203125,0.96484375t-0.8759765625,0.330078125l-0.279296875-0.05078125q0.736328125,1.98046875,1.26953125,4.0625t1.041015625,4.1640625q0.203125,0.40625,0.3046875,0.7236328125t0.1015625,0.6220703125q0,0.40625-0.228515625,0.6728515625t-0.5966796875,0.3935546875t-0.76171875,0.177734375t-0.6982421875,0.05078125q-1.091796875,0-1.6376953125-0.380859375t-0.787109375-1.041015625t-0.2919921875-1.4853515625t-0.203125-1.6630859375q-0.3046875,0.990234375-0.7998046875,1.9296875t-1.16796875,1.6884765625t-1.5869140625,1.193359375t-2.056640625,0.4443359375q-1.67578125,0-2.818359375-0.96484375t-1.8408203125-2.3740234375t-1.015625-3.0087890625t-0.3173828125-2.970703125z M158.3051953125,56.173828125q0,0.939453125,0.126953125,1.98046875t0.4189453125,2.056640625t0.7490234375,1.9169921875t1.142578125,1.5869140625q1.244140625-1.345703125,1.8408203125-3.275390625t1.06640625-3.7197265625t1.06640625-3.072265625t1.8408203125-1.2822265625q0.787109375,0,1.3203125,0.279296875q-0.25390625-0.634765625-0.837890625-1.2314453125t-1.3076171875-1.091796875t-1.498046875-0.8125t-1.4599609375-0.3173828125q-0.203125,0-0.4697265625,0.0634765625t-0.4189453125,0.0126953125q-1.041015625,0.3046875-1.7138671875,1.0537109375t-1.091796875,1.7646484375t-0.5966796875,2.08203125t-0.177734375,2.005859375z M186.446640625,65.416015625q0-0.15234375,0.1015625-1.0791015625t0.2666015625-2.259765625t0.3681640625-2.869140625t0.35546875-2.9072265625t0.2666015625-2.412109375t0.1142578125-1.396484375q-0.203125-0.1015625-0.4951171875-0.2919921875t-0.2919921875-0.4443359375q0-0.35546875,0.3427734375-0.5712890625t0.5966796875-0.3173828125q0.1015625-1.294921875,0.25390625-3.60546875t0.4697265625-4.9892578125t0.888671875-5.43359375t1.5107421875-5.001953125t2.259765625-3.6689453125t3.25-1.421875t3.19921875,1.21875t2.0693359375,3.173828125t1.21875,4.341796875t0.634765625,4.748046875t0.2666015625,4.41796875t0.1015625,3.30078125q0.05078125,0.787109375,0.380859375,1.0537109375t0.7236328125,0.3681640625t0.7109375,0.228515625t0.3173828125,0.634765625q0,0.583984375-0.7109375,0.8125t-1.1171875,0.279296875q0.25390625,3.173828125,0.6982421875,6.24609375t1.1806640625,6.1953125q0.1015625,0.583984375,0.279296875,1.1806640625t0.177734375,1.1552734375q0,0.40625-0.279296875,0.6728515625t-0.7236328125,0.4189453125t-0.888671875,0.203125t-0.7490234375,0.05078125q-1.142578125,0-1.9296875-0.431640625t-1.041015625-1.650390625q-0.685546875-3.275390625-1.345703125-6.880859375q-0.55859375-3.123046875-0.55859375-6.068359375q0-0.45703125,0.025390625-0.9140625q-2.1328125,0-4.291015625,0.1015625t-4.138671875,0.76171875q-0.05078125,0.685546875-0.25390625,2.58984375t-0.45703125,4.087890625t-0.5205078125,4.1767578125t-0.3173828125,2.8310546875q-0.05078125,0.35546875-0.5205078125,0.6728515625t-1.015625,0.3427734375t-0.96484375-0.3427734375t-0.4189453125-1.3076171875z M191.1946875,50.029296875q1.98046875-0.45703125,3.9736328125-0.533203125t4.0244140625-0.177734375q-0.1015625-0.634765625-0.05078125-1.3076171875t0.05078125-1.3583984375q0-1.498046875-0.076171875-3.478515625t-0.228515625-4.01171875t-0.3935546875-3.9990234375t-0.5458984375-3.50390625t-0.6474609375-2.4501953125t-0.7490234375-0.9140625q-0.787109375,0.05078125-1.4853515625,1.3583984375t-1.26953125,3.326171875t-1.041015625,4.51953125t-0.787109375,4.8876953125t-0.5205078125,4.443359375t-0.25390625,3.19921875z M212.08279296875,58.560546875q0-0.939453125,0.0380859375-2.7548828125t0.2666015625-3.6943359375t0.7490234375-3.40234375t1.5615234375-1.955078125q0.25390625-0.1015625,0.8251953125-0.177734375t1.142578125-0.05078125t1.015625,0.203125t0.4443359375,0.66015625q0,0.1015625-0.1015625,0.279296875t-0.533203125,0.55859375q-0.787109375,2.18359375-0.96484375,4.341796875t-0.177734375,4.443359375q0,1.345703125,0.0888671875,2.69140625t0.2919921875,2.716796875q0.40625-0.583984375,0.8251953125-1.751953125t0.888671875-2.5517578125t0.96484375-2.8056640625t1.1171875-2.58984375t1.37109375-1.9296875t1.6884765625-0.76171875q1.041015625,0,1.7392578125,1.3076171875t1.294921875,3.021484375t1.1171875,3.478515625t1.2568359375,2.7041015625q0.35546875-0.35546875,0.5712890625-0.9267578125t0.3427734375-1.2314453125t0.15234375-1.3076171875t0.025390625-1.1044921875q0-1.142578125-0.3427734375-2.4755859375t-0.7236328125-2.5009765625t-0.7236328125-1.9677734375t-0.3427734375-0.9267578125q0-0.203125,0.2158203125-0.330078125t0.4951171875-0.203125t0.5712890625-0.1015625t0.4443359375-0.025390625q0.939453125,0,1.6123046875,1.041015625t1.06640625,2.412109375t0.5712890625,2.7802734375t0.177734375,2.1962890625q0,0.990234375-0.15234375,2.107421875t-0.5712890625,2.0693359375t-1.2314453125,1.5869140625t-2.056640625,0.634765625q-1.498046875,0-2.462890625-0.837890625t-1.5615234375-2.03125t-0.939453125-2.6025390625t-0.6474609375-2.5517578125q-0.583984375,1.345703125-1.06640625,3.40234375t-1.21875,4.037109375t-1.87890625,3.376953125t-2.970703125,1.396484375t-2.6025390625-0.9013671875t-1.2314453125-2.4755859375l0.05078125,0.05078125q-0.3046875-1.142578125-0.3935546875-2.28515625t-0.0888671875-2.28515625z M237.7951171875,57.01171875q0-1.447265625,0.3681640625-2.9833984375t1.16796875-2.767578125t2.0185546875-2.005859375t2.9453125-0.7744140625q1.294921875,0,2.7294921875,0.4443359375t2.6279296875,1.26953125t1.9423828125,2.0185546875t0.7490234375,2.666015625q0,1.77734375-0.6474609375,3.376953125t-1.8154296875,2.8564453125t-2.7294921875,1.98046875t-3.3896484375,0.7236328125q-1.498046875,0-2.615234375-0.5458984375t-1.8662109375-1.4599609375t-1.1171875-2.158203125t-0.3681640625-2.640625z M241.5275390625,56.9609375q0,0.45703125,0.1396484375,1.345703125t0.4189453125,1.7392578125t0.7236328125,1.47265625t1.0791015625,0.5712890625q1.345703125-0.15234375,2.2216796875-0.8759765625t1.421875-1.7646484375t0.76171875-2.259765625t0.2158203125-2.310546875q0-1.396484375-0.5458984375-2.3359375t-1.7900390625-1.5234375q0,0.05078125,0.05078125,0.05078125t0.05078125-0.05078125l-0.634765625-0.15234375q-0.25390625-0.1015625-0.6220703125-0.228515625t-0.7236328125-0.55859375q-0.990234375,0.35546875-1.5361328125,0.9140625t-0.8251953125,1.3583984375t-0.3427734375,1.9169921875t-0.0634765625,2.69140625z M257.03283203125,66.837890625l0.533203125-0.634765625q-0.1015625-4.265625-0.228515625-8.505859375t-0.126953125-8.4296875q0-5.205078125,0.6220703125-10.0673828125t1.2314453125-9.9658203125q0.05078125-0.3046875,0.2919921875-0.4951171875t0.5966796875-0.3173828125t0.7236328125-0.177734375t0.6728515625-0.05078125q0.40625,0,1.015625,0.15234375t1.21875,0.888671875q0,0.25390625,0.0380859375,0.4443359375t0.0380859375,0.4443359375q0,1.9296875-0.5205078125,4.138671875t-0.6982421875,4.240234375q-0.203125,2.48828125-0.279296875,4.92578125t-0.076171875,4.951171875l0.05078125,2.234375q0.5078125-0.634765625,1.447265625-1.625t2.03125-1.9169921875t2.18359375-1.5869140625t1.98046875-0.66015625q1.345703125,0,1.8662109375,0.76171875t0.5205078125,2.005859375q0,1.142578125-0.4951171875,2.38671875t-1.294921875,2.4248046875t-1.8154296875,2.1201171875t-2.005859375,1.396484375q1.345703125,1.67578125,2.7548828125,3.19921875t3.0849609375,2.869140625l0,0.583984375q-0.05078125,0.25390625-0.3173828125,0.380859375t-0.583984375,0.203125t-0.6220703125,0.1142578125t-0.5078125,0.0380859375q-1.244140625,0-2.3994140625-0.736328125t-2.158203125-1.802734375t-1.8916015625-2.259765625t-1.625-2.08203125q0.15234375,2.919921875,0.3427734375,5.8271484375t0.1904296875,5.8271484375q0,0.35546875-0.3173828125,0.5966796875t-0.736328125,0.3681640625t-0.8505859375,0.177734375t-0.7109375,0.05078125q-1.498046875,0-2.1201171875-0.5458984375t-1.0537109375-1.8916015625z M262.23791015625,54.87890625q0.634765625,0,1.5107421875-0.5458984375t1.8154296875-1.3583984375t1.751953125-1.7138671875t1.3076171875-1.7138671875t0.4951171875-1.3076171875t-0.685546875-0.4443359375q-0.25390625,0-1.041015625,0.736328125t-1.751953125,1.802734375t-1.9296875,2.310546875t-1.47265625,2.234375z M277.590859375,57.5703125q0-1.77734375,0.3935546875-4.189453125t1.3330078125-4.5703125t2.4755859375-3.6689453125t3.8720703125-1.5107421875q2.18359375,0,3.275390625,1.2568359375t1.091796875,3.3896484375q0,1.396484375-0.5205078125,3.0595703125t-1.4853515625,3.1484375t-2.28515625,2.4755859375t-2.9453125,0.990234375l-0.66015625-0.05078125q0,0.685546875,0.203125,1.8408203125t0.5966796875,2.2978515625t1.015625,2.005859375t1.5107421875,0.86328125q1.294921875,0,2.48828125-1.041015625t2.259765625-2.310546875t1.98046875-2.310546875t1.67578125-1.041015625q0.40625,0,0.837890625,0.126953125t0.482421875,0.7109375q0,0.35546875-0.1904296875,0.583984375t-0.3427734375,0.5078125q-0.787109375,1.345703125-1.7138671875,2.564453125t-2.0947265625,2.208984375t-2.5517578125,1.5615234375t-3.0595703125,0.5712890625q-2.18359375,0-3.630859375-0.7744140625t-2.3359375-2.08203125t-1.2822265625-3.021484375t-0.3935546875-3.5927734375z M282.13578125,55.640625l0.7109375,0.634765625q0.5078125,0.45703125,1.015625,0.203125t0.9140625-0.9267578125t0.7490234375-1.6630859375t0.609375-2.03125t0.3935546875-2.03125t0.126953125-1.650390625l0-0.86328125t-0.076171875-0.9140625t-0.2666015625-0.7236328125t-0.5966796875-0.3681640625q-0.126953125-0.025390625-0.228515625-0.025390625q-0.86328125,0-1.47265625,1.091796875q-0.66015625,1.21875-1.06640625,2.9580078125t-0.583984375,3.5673828125t-0.228515625,2.7421875z"/><path fill="#" d=""/></svg>
